# xmcd
# 
# Track frame offsets:
#     182
#     28655
#     46455
#     59732
#     91385
#     109640
#     133840
#     151765
#     170742
#     185010
# 
# Disc length: 3097
# 
# Revision: 2
# Processed by: cddbd v1.5.2PL0 Copyright (c) Steve Scherf et al.
# Submitted via: BonkEnc v1.0.8
# 
DISCID=8b0c170a
DTITLE=Steve Tibbetts, Marc Anderson, Bob Hughes, Tim Wienhold, Steve Cochrane - Safe Journey
DYEAR=1983
DGENRE=Contemporary Jazz
TTITLE0=Test
TTITLE1=Climbing
TTITLE2=Running
TTITLE3=Night Again
TTITLE4=My Last Chance
TTITLE5=Vision
TTITLE6=Any Minute
TTITLE7=Mission
TTITLE8=Burning Up
TTITLE9=Going Somewhere
EXTD=
EXTT0=
EXTT1=
EXTT2=
EXTT3=
EXTT4=
EXTT5=
EXTT6=
EXTT7=
EXTT8=
EXTT9=
PLAYORDER=
